HIERARCHY
ROOT hip
{
  OFFSET 9.40255 82.28 -183.984
  CHANNELS 6 Xposition Yposition Zposition Zrotation Xrotation Yrotation
  JOINT abdomen
  {
    OFFSET 0 20.6881 -0.73152
    CHANNELS 3 Zrotation Xrotation Yrotation
    JOINT chest
    {
      OFFSET 0 11.7043 -0.48768
      CHANNELS 3 Zrotation Xrotation Yrotation
      JOINT neck
      {
        OFFSET 0 22.1894 -2.19456
        CHANNELS 3 Zrotation Xrotation Yrotation
        JOINT head
        {
          OFFSET -0.24384 7.07133 1.2192
          CHANNELS 3 Zrotation Xrotation Yrotation
          JOINT leftEye
          {
            OFFSET 4.14528 8.04674 8.04672
            CHANNELS 3 Zrotation Xrotation Yrotation
            End Site
            {
              OFFSET 1 0 0
            }
          }
          JOINT rightEye
          {
            OFFSET -3.6576 8.04674 8.04672
            CHANNELS 3 Zrotation Xrotation Yrotation
            End Site
            {
              OFFSET 1 0 0
            }
          }
        }
      }
      JOINT rCollar
      {
        OFFSET -2.68224 19.2634 -4.8768
        CHANNELS 3 Zrotation Xrotation Yrotation
        JOINT rShldr
        {
          OFFSET -8.77824 -1.95073 1.46304
          CHANNELS 3 Zrotation Xrotation Yrotation
          JOINT rForeArm
          {
            OFFSET -28.1742 -1.7115 0.48768
            CHANNELS 3 Zrotation Xrotation Yrotation
            JOINT rHand
            {
              OFFSET -22.5879 0.773209 7.07136
              CHANNELS 3 Zrotation Xrotation Yrotation
              JOINT rThumb1
              {
                OFFSET -1.2192 -0.487915 3.41376
                CHANNELS 3 Zrotation Xrotation Yrotation
                JOINT rThumb2
                {
                  OFFSET -3.37035 -0.52449 3.41376
                  CHANNELS 3 Zrotation Xrotation Yrotation
                  End Site
                  {
                    OFFSET -1.78271 -1.18214 1.43049
                  }
                }
              }
              JOINT rIndex1
              {
                OFFSET -7.75947 0.938293 5.60832
                CHANNELS 3 Zrotation Xrotation Yrotation
                JOINT rIndex2
                {
                  OFFSET -2.54057 -0.884171 1.56538
                  CHANNELS 3 Zrotation Xrotation Yrotation
                  End Site
                  {
                    OFFSET -1.62519 -0.234802 1.16502
                  }
                }
              }
              JOINT rMid1
              {
                OFFSET -8.24714 1.18213 3.41376
                CHANNELS 3 Zrotation Xrotation Yrotation
                JOINT rMid2
                {
                  OFFSET -3.10165 -0.590103 1.0647
                  CHANNELS 3 Zrotation Xrotation Yrotation
                  End Site
                  {
                    OFFSET -2.48547 -0.328903 0.83742
                  }
                }
              }
              JOINT rRing1
              {
                OFFSET -8.82822 0.546677 1.51678
                CHANNELS 3 Zrotation Xrotation Yrotation
                JOINT rRing2
                {
                  OFFSET -2.60934 -0.819778 -0.0198488
                  CHANNELS 3 Zrotation Xrotation Yrotation
                  End Site
                  {
                    OFFSET -2.33842 -0.294052 0.168128
                  }
                }
              }
              JOINT rPinky1
              {
                OFFSET -8.27202 -0.0477905 -0.4584
                CHANNELS 3 Zrotation Xrotation Yrotation
                JOINT rPinky2
                {
                  OFFSET -1.82734 -0.647385 -0.700984
                  CHANNELS 3 Zrotation Xrotation Yrotation
                  End Site
                  {
                    OFFSET -1.69225 -0.51767 -0.607171
                  }
                }
              }
            }
          }
        }
      }
      JOINT lCollar
      {
        OFFSET 2.68224 19.2634 -4.8768
        CHANNELS 3 Zrotation Xrotation Yrotation
        JOINT lShldr
        {
          OFFSET 8.77824 -1.95073 1.46304
          CHANNELS 3 Zrotation Xrotation Yrotation
          JOINT lForeArm
          {
            OFFSET 28.1742 -1.7115 0.48768
            CHANNELS 3 Zrotation Xrotation Yrotation
            JOINT lHand
            {
              OFFSET 22.5879 0.773209 7.07136
              CHANNELS 3 Zrotation Xrotation Yrotation
              JOINT lThumb1
              {
                OFFSET 1.2192 -0.487915 3.41376
                CHANNELS 3 Zrotation Xrotation Yrotation
                JOINT lThumb2
                {
                  OFFSET 3.37035 -0.52449 3.41376
                  CHANNELS 3 Zrotation Xrotation Yrotation
                  End Site
                  {
                    OFFSET 1.78271 -1.18214 1.43049
                  }
                }
              }
              JOINT lIndex1
              {
                OFFSET 7.75947 0.938293 5.60832
                CHANNELS 3 Zrotation Xrotation Yrotation
                JOINT lIndex2
                {
                  OFFSET 2.54057 -0.884171 1.56538
                  CHANNELS 3 Zrotation Xrotation Yrotation
                  End Site
                  {
                    OFFSET 1.62519 -0.234802 1.16502
                  }
                }
              }
              JOINT lMid1
              {
                OFFSET 8.24714 1.18213 3.41376
                CHANNELS 3 Zrotation Xrotation Yrotation
                JOINT lMid2
                {
                  OFFSET 3.10165 -0.590103 1.0647
                  CHANNELS 3 Zrotation Xrotation Yrotation
                  End Site
                  {
                    OFFSET 2.48547 -0.328903 0.83742
                  }
                }
              }
              JOINT lRing1
              {
                OFFSET 8.82822 0.546677 1.51678
                CHANNELS 3 Zrotation Xrotation Yrotation
                JOINT lRing2
                {
                  OFFSET 2.60934 -0.819778 -0.0198488
                  CHANNELS 3 Zrotation Xrotation Yrotation
                  End Site
                  {
                    OFFSET 2.33842 -0.294052 0.168128
                  }
                }
              }
              JOINT lPinky1
              {
                OFFSET 8.27202 -0.0477905 -0.4584
                CHANNELS 3 Zrotation Xrotation Yrotation
                JOINT lPinky2
                {
                  OFFSET 1.82734 -0.647385 -0.700984
                  CHANNELS 3 Zrotation Xrotation Yrotation
                  End Site
                  {
                    OFFSET 1.69225 -0.51767 -0.607171
                  }
                }
              }
            }
          }
        }
      }
    }
  }
  JOINT rButtock
  {
    OFFSET -8.77824 4.35084 1.2192
    CHANNELS 3 Zrotation Xrotation Yrotation
    JOINT rThigh
    {
      OFFSET 0 -1.70687 -2.19456
      CHANNELS 3 Zrotation Xrotation Yrotation
      JOINT rShin
      {
        OFFSET 0 -36.8199 0.73152
        CHANNELS 3 Zrotation Xrotation Yrotation
        JOINT rFoot
        {
          OFFSET 0.73152 -45.1104 -5.12064
          CHANNELS 3 Zrotation Xrotation Yrotation
          End Site
          {
            OFFSET -1.1221 -3.69964 12.103
          }
        }
      }
    }
  }
  JOINT lButtock
  {
    OFFSET 8.77824 4.35084 1.2192
    CHANNELS 3 Zrotation Xrotation Yrotation
    JOINT lThigh
    {
      OFFSET 0 -1.70687 -2.19456
      CHANNELS 3 Zrotation Xrotation Yrotation
      JOINT lShin
      {
        OFFSET 0 -36.8199 0.73152
        CHANNELS 3 Zrotation Xrotation Yrotation
        JOINT lFoot
        {
          OFFSET -0.73152 -45.1104 -5.12064
          CHANNELS 3 Zrotation Xrotation Yrotation
          End Site
          {
            OFFSET 1.1221 -3.69964 12.103
          }
        }
      }
    }
  }
}
MOTION
Frames:	4
Frame Time:	0.00833333
5.02203 85.3572 159.802 -0.999967 0.00113125 0.0184782 1.31604 -0.00470374 0.0362373 0.363458 -0.00359446 0.0629618 -2.77474e-014 -1.59028e-015 -7.45442e-017 -8.34119e-014 3.18055e-015 -2.50034e-016 -0 0 0 -0 0 0 -1.38667e-014 5.41611e-017 1.49089e-016 -2.89565e-013 1.11195e-015 -9.93923e-016 -5.0377e-012 1.54674e-012 3.49861e-014 -5.76605e-011 -1.30532e-012 -3.08514e-013 -1.36019e-010 5.21881e-013 -5.62958e-013 -2.34902e-010 9.03278e-013 -9.7643e-013 -1.36011e-010 5.25984e-013 -5.78861e-013 7.73091 5.47488 0.417314 -1.36019e-010 5.22009e-013 -5.62958e-013 2.90554 0.965183 0.102902 -1.36007e-010 5.22108e-013 -5.63753e-013 10.2786 0.731801 0.0259123 -1.36019e-010 5.21213e-013 -5.53417e-013 2.22167 -0.733487 -0.20892 -1.39641e-014 5.47434e-017 -2.48481e-016 -2.95035e-013 1.22998e-015 -2.38542e-015 -5.03546e-012 -1.46564e-012 3.18055e-015 -5.76584e-011 1.72913e-012 -2.60805e-013 -1.36011e-010 5.69289e-013 -5.56597e-013 -2.34876e-010 9.82791e-013 -9.52576e-013 -1.36018e-010 5.71307e-013 -5.50236e-013 -7.73091 5.47488 -0.417314 -1.36012e-010 5.69816e-013 -5.56597e-013 -2.90554 0.965183 -0.102902 -1.3602e-010 5.70313e-013 -5.56597e-013 -10.2786 0.731801 -0.0259123 -1.36008e-010 5.68127e-013 -5.725e-013 -2.22167 -0.733487 0.20892 -2.03217e-016 0 -3.88251e-019 1.46245 -6.1386 -0.134753 0.00180498 5.56143 0.0541781 -0.478163 0.575046 0.0659699 2.03217e-016 0 3.88251e-019 0.544937 -1.92085 0.00800129 0.00890862 -2.07861 0.0733684 0.45261 3.99724 -0.131506 
6.5186 83.2332 148.542 -2.42917 1.42877 48.5787 -0.159046 -0.774938 2.31367 0.282593 0.665475 0.694629 -0.693477 -5.77112 -0.974554 1.40184 8.38726 -2.57801 -0 0 0 -0 0 0 -9.44888e-015 -6.48568e-015 1.92165e-014 21.6427 15.3723 -3.07939 -23.0128 -20.8883 14.8897 0.010847 2.31375 0.324224 6.14312e-011 1.08135e-009 -3.30767e-010 1.03356e-010 1.87163e-009 -5.73521e-010 6.1438e-011 1.08135e-009 -3.30782e-010 7.73091 5.47488 0.417314 6.14317e-011 1.08135e-009 -3.30768e-010 2.90554 0.965183 0.102902 6.14427e-011 1.08135e-009 -3.30769e-010 10.2786 0.731801 0.0259123 6.14289e-011 1.08135e-009 -3.30759e-010 2.22167 -0.733487 -0.20892 -9.54813e-015 -6.48048e-015 1.88869e-014 -18.7415 17.5812 4.8321 25.4164 -23.1897 -14.3003 -0.0490812 4.91762 -0.681963 9.79479e-011 1.17516e-010 3.66365e-011 1.68672e-010 1.87134e-010 6.10879e-011 9.79419e-011 1.17519e-010 3.66428e-011 -7.73091 5.47488 -0.417314 9.79467e-011 1.17515e-010 3.66347e-011 -2.90554 0.965183 -0.102902 9.79403e-011 1.17515e-010 3.6634e-011 -10.2786 0.731801 -0.0259123 9.79517e-011 1.17514e-010 3.66202e-011 -2.22167 -0.733487 0.20892 -2.03217e-016 0 -3.88251e-019 2.05533 -4.95505 -0.115249 -0.0383474 17.7036 0.205253 -0.359465 7.49727 -3.45254 2.03217e-016 0 3.88251e-019 0.113331 -10.7221 -1.38213 0.0371211 7.34862 -0.00616168 0.361736 6.54487 3.21905 
6.33448 82.5795 146.603 -5.04529 -0.763628 99.8433 -1.59563 -1.61626 4.76436 0.167362 1.37766 1.37625 -1.65417 -11.8849 -2.0522 3.73637 17.2275 -5.51579 -0 0 0 -0 0 0 -3.17913e-015 -1.7375e-014 4.09403e-014 46.5557 31.5191 -7.09208 -33.4828 -37.9278 37.3053 -0.00623243 4.74541 0.666765 2.89009e-010 2.34498e-009 -7.14118e-010 4.93244e-010 4.05885e-009 -1.23821e-009 2.89015e-010 2.34499e-009 -7.14133e-010 7.73091 5.47488 0.417314 2.8901e-010 2.34498e-009 -7.14121e-010 2.90554 0.965183 0.102902 2.89021e-010 2.34499e-009 -7.14122e-010 10.2786 0.731801 0.0259123 2.89005e-010 2.34498e-009 -7.14113e-010 2.22167 -0.733487 -0.20892 -3.28164e-015 -1.73647e-014 4.06825e-014 -42.445 35.7122 11.7839 36.4784 -42.3456 -37.869 0.0281468 10.1149 -1.41994 3.38881e-010 3.38891e-010 9.20995e-011 5.84368e-010 5.52838e-010 1.54668e-010 3.38876e-010 3.38894e-010 9.21057e-011 -7.73091 5.47488 -0.417314 3.38879e-010 3.38887e-010 9.20957e-011 -2.90554 0.965183 -0.102902 3.38875e-010 3.38886e-010 9.20943e-011 -10.2786 0.731801 -0.0259123 3.38885e-010 3.38888e-010 9.20826e-011 -2.22167 -0.733487 0.20892 -2.03217e-016 0 -3.88251e-019 2.74871 -3.61241 -0.0619437 -0.158658 30.3488 0.397751 0.725303 14.7843 -7.34582 2.03217e-016 0 3.88251e-019 -0.776608 -20.0638 -2.98208 0.095389 17.2445 -0.0941223 -0.0662197 9.28256 6.71029 
6.14614 81.8484 144.656 -4.09624 -5.34129 145.468 -2.92588 -2.30067 6.87346 0.0765908 2.00259 1.95902 -2.69283 -17.2928 -3.04668 6.65956 24.9472 -8.44408 -0 0 0 -0 0 0 -6.13233e-016 -1.95654e-014 5.73513e-014 71.6428 45.4651 -12.7544 -30.7632 -42.4548 64.3082 -0.0465068 6.94036 0.979054 4.56331e-010 3.243e-009 -9.91175e-010 7.79873e-010 5.61307e-009 -1.71861e-009 4.56337e-010 3.24301e-009 -9.91189e-010 7.73091 5.47488 0.417314 4.56332e-010 3.243e-009 -9.91178e-010 2.90554 0.965183 0.102902 4.56342e-010 3.24301e-009 -9.9118e-010 10.2786 0.731801 0.0259123 4.56324e-010 3.24299e-009 -9.91171e-010 2.22167 -0.733487 -0.20892 -7.16263e-016 -1.95509e-014 5.71576e-014 -69.3741 50.7786 22.1919 31.1889 -47.166 -68.9072 0.214042 14.7443 -2.1078 5.65866e-010 3.5141e-010 1.11023e-010 9.75769e-010 5.59436e-010 1.85169e-010 5.65862e-010 3.51414e-010 1.11029e-010 -7.73091 5.47488 -0.417314 5.65865e-010 3.51404e-010 1.11017e-010 -2.90554 0.965183 -0.102902 5.65861e-010 3.51403e-010 1.11015e-010 -10.2786 0.731801 -0.0259123 5.65871e-010 3.51407e-010 1.11006e-010 -2.22167 -0.733487 0.20892 -2.03217e-016 0 -3.88251e-019 3.23868 -2.58795 -0.0765721 -0.372783 41.9864 0.644092 2.56682 21.014 -11.1511 2.03217e-016 0 3.88251e-019 -2.18016 -28.2552 -4.64437 0.177692 26.203 -0.183869 -0.724891 11.4962 10.0604 
